<mxfile host="app.diagrams.net" agent="Mozilla/5.0 (Windows NT 10.0; Win64; x64; rv:132.0) Gecko/20100101 Firefox/132.0" version="24.8.4">
  <diagram name="Page-1" id="Me7U7_8mTwCqDnl7A9CH">
    <mxGraphModel grid="1" page="1" gridSize="10" guides="1" tooltips="1" connect="1" arrows="1" fold="1" pageScale="1" pageWidth="850" pageHeight="1100" math="0" shadow="0">
      <root>
        <mxCell id="0" />
        <mxCell id="1" parent="0" />
        <mxCell id="Oie51b7RRHgQ4mlDYI3o-1" value="" style="rounded=0;whiteSpace=wrap;html=1;" vertex="1" parent="1">
          <mxGeometry x="545" y="-40" width="210" height="270" as="geometry" />
        </mxCell>
        <mxCell id="Oie51b7RRHgQ4mlDYI3o-2" value="Customer" style="text;html=1;align=center;verticalAlign=middle;whiteSpace=wrap;rounded=0;" vertex="1" parent="1">
          <mxGeometry x="565" y="-30" width="60" height="30" as="geometry" />
        </mxCell>
        <mxCell id="Oie51b7RRHgQ4mlDYI3o-3" value="Policy" style="text;html=1;align=center;verticalAlign=middle;whiteSpace=wrap;rounded=0;" vertex="1" parent="1">
          <mxGeometry x="565" width="60" height="30" as="geometry" />
        </mxCell>
        <mxCell id="Oie51b7RRHgQ4mlDYI3o-4" value="Profile" style="text;html=1;align=center;verticalAlign=middle;whiteSpace=wrap;rounded=0;" vertex="1" parent="1">
          <mxGeometry x="565" y="30" width="60" height="30" as="geometry" />
        </mxCell>
        <mxCell id="Oie51b7RRHgQ4mlDYI3o-6" value="Website" style="text;html=1;align=center;verticalAlign=middle;whiteSpace=wrap;rounded=0;" vertex="1" parent="1">
          <mxGeometry x="565" y="60" width="60" height="30" as="geometry" />
        </mxCell>
        <mxCell id="Oie51b7RRHgQ4mlDYI3o-8" value="Mobile App" style="text;html=1;align=center;verticalAlign=middle;whiteSpace=wrap;rounded=0;" vertex="1" parent="1">
          <mxGeometry x="565" y="100" width="60" height="30" as="geometry" />
        </mxCell>
        <mxCell id="Oie51b7RRHgQ4mlDYI3o-10" value="Vehicle" style="text;html=1;align=center;verticalAlign=middle;whiteSpace=wrap;rounded=0;" vertex="1" parent="1">
          <mxGeometry x="565" y="140" width="60" height="30" as="geometry" />
        </mxCell>
        <mxCell id="Oie51b7RRHgQ4mlDYI3o-11" value="Database" style="text;html=1;align=center;verticalAlign=middle;whiteSpace=wrap;rounded=0;" vertex="1" parent="1">
          <mxGeometry x="565" y="170" width="60" height="30" as="geometry" />
        </mxCell>
        <mxCell id="Oie51b7RRHgQ4mlDYI3o-15" value="Principle Driver" style="text;html=1;align=center;verticalAlign=middle;whiteSpace=wrap;rounded=0;" vertex="1" parent="1">
          <mxGeometry x="660" y="-30" width="60" height="30" as="geometry" />
        </mxCell>
        <mxCell id="Oie51b7RRHgQ4mlDYI3o-16" value="Service Rep" style="text;html=1;align=center;verticalAlign=middle;whiteSpace=wrap;rounded=0;" vertex="1" parent="1">
          <mxGeometry x="660" y="170" width="60" height="30" as="geometry" />
        </mxCell>
        <mxCell id="Oie51b7RRHgQ4mlDYI3o-17" value="Auto Policy" style="text;html=1;align=center;verticalAlign=middle;whiteSpace=wrap;rounded=0;" vertex="1" parent="1">
          <mxGeometry x="660" width="60" height="30" as="geometry" />
        </mxCell>
        <mxCell id="Oie51b7RRHgQ4mlDYI3o-18" value="Home Policy" style="text;html=1;align=center;verticalAlign=middle;whiteSpace=wrap;rounded=0;" vertex="1" parent="1">
          <mxGeometry x="660" y="40" width="60" height="30" as="geometry" />
        </mxCell>
        <mxCell id="Oie51b7RRHgQ4mlDYI3o-20" value="Property" style="text;html=1;align=center;verticalAlign=middle;whiteSpace=wrap;rounded=0;" vertex="1" parent="1">
          <mxGeometry x="660" y="90" width="60" height="30" as="geometry" />
        </mxCell>
        <mxCell id="Oie51b7RRHgQ4mlDYI3o-21" value="Accident" style="text;html=1;align=center;verticalAlign=middle;whiteSpace=wrap;rounded=0;" vertex="1" parent="1">
          <mxGeometry x="660" y="130" width="60" height="30" as="geometry" />
        </mxCell>
        <mxCell id="Oie51b7RRHgQ4mlDYI3o-22" value="Policy" style="swimlane;fontStyle=1;align=center;verticalAlign=top;childLayout=stackLayout;horizontal=1;startSize=26;horizontalStack=0;resizeParent=1;resizeParentMax=0;resizeLast=0;collapsible=1;marginBottom=0;whiteSpace=wrap;html=1;" vertex="1" parent="1">
          <mxGeometry x="920" y="104" width="160" height="180" as="geometry" />
        </mxCell>
        <mxCell id="Oie51b7RRHgQ4mlDYI3o-23" value="&lt;div&gt;- name insured&lt;/div&gt;&lt;div&gt;- start date&lt;/div&gt;&lt;div&gt;- end date&lt;/div&gt;&lt;div&gt;- base premium&lt;/div&gt;&lt;div&gt;- tax&lt;/div&gt;&lt;div&gt;- total premium&lt;/div&gt;&lt;div&gt;- policy type&lt;br&gt;&lt;/div&gt;" style="text;strokeColor=none;fillColor=none;align=left;verticalAlign=top;spacingLeft=4;spacingRight=4;overflow=hidden;rotatable=0;points=[[0,0.5],[1,0.5]];portConstraint=eastwest;whiteSpace=wrap;html=1;" vertex="1" parent="Oie51b7RRHgQ4mlDYI3o-22">
          <mxGeometry y="26" width="160" height="114" as="geometry" />
        </mxCell>
        <mxCell id="Oie51b7RRHgQ4mlDYI3o-24" value="" style="line;strokeWidth=1;fillColor=none;align=left;verticalAlign=middle;spacingTop=-1;spacingLeft=3;spacingRight=3;rotatable=0;labelPosition=right;points=[];portConstraint=eastwest;strokeColor=inherit;" vertex="1" parent="Oie51b7RRHgQ4mlDYI3o-22">
          <mxGeometry y="140" width="160" height="8" as="geometry" />
        </mxCell>
        <mxCell id="Oie51b7RRHgQ4mlDYI3o-25" value="+ calculate premium" style="text;strokeColor=none;fillColor=none;align=left;verticalAlign=top;spacingLeft=4;spacingRight=4;overflow=hidden;rotatable=0;points=[[0,0.5],[1,0.5]];portConstraint=eastwest;whiteSpace=wrap;html=1;" vertex="1" parent="Oie51b7RRHgQ4mlDYI3o-22">
          <mxGeometry y="148" width="160" height="32" as="geometry" />
        </mxCell>
        <mxCell id="Oie51b7RRHgQ4mlDYI3o-26" value="Customer" style="swimlane;fontStyle=1;align=center;verticalAlign=top;childLayout=stackLayout;horizontal=1;startSize=26;horizontalStack=0;resizeParent=1;resizeParentMax=0;resizeLast=0;collapsible=1;marginBottom=0;whiteSpace=wrap;html=1;" vertex="1" parent="1">
          <mxGeometry x="1180" y="104" width="160" height="190" as="geometry" />
        </mxCell>
        <mxCell id="Oie51b7RRHgQ4mlDYI3o-27" value="&lt;div&gt;- name&lt;br&gt;&lt;/div&gt;&lt;div&gt;- home policy&lt;/div&gt;&lt;div&gt;- auto policy&lt;br&gt;&lt;/div&gt;&lt;div&gt;&lt;br&gt;&lt;/div&gt;&lt;div&gt;&lt;br&gt;&lt;/div&gt;" style="text;strokeColor=none;fillColor=none;align=left;verticalAlign=top;spacingLeft=4;spacingRight=4;overflow=hidden;rotatable=0;points=[[0,0.5],[1,0.5]];portConstraint=eastwest;whiteSpace=wrap;html=1;" vertex="1" parent="Oie51b7RRHgQ4mlDYI3o-26">
          <mxGeometry y="26" width="160" height="54" as="geometry" />
        </mxCell>
        <mxCell id="Oie51b7RRHgQ4mlDYI3o-28" value="" style="line;strokeWidth=1;fillColor=none;align=left;verticalAlign=middle;spacingTop=-1;spacingLeft=3;spacingRight=3;rotatable=0;labelPosition=right;points=[];portConstraint=eastwest;strokeColor=inherit;" vertex="1" parent="Oie51b7RRHgQ4mlDYI3o-26">
          <mxGeometry y="80" width="160" height="8" as="geometry" />
        </mxCell>
        <mxCell id="Oie51b7RRHgQ4mlDYI3o-29" value="&lt;div&gt;+ login&lt;/div&gt;&lt;div&gt;+ register&lt;/div&gt;&lt;div&gt;+ quote policy&lt;/div&gt;&lt;div&gt;+ renew policy&lt;br&gt;&lt;/div&gt;&lt;div&gt;+ cancel policy&lt;/div&gt;+ contact sales rep" style="text;strokeColor=none;fillColor=none;align=left;verticalAlign=top;spacingLeft=4;spacingRight=4;overflow=hidden;rotatable=0;points=[[0,0.5],[1,0.5]];portConstraint=eastwest;whiteSpace=wrap;html=1;" vertex="1" parent="Oie51b7RRHgQ4mlDYI3o-26">
          <mxGeometry y="88" width="160" height="102" as="geometry" />
        </mxCell>
        <mxCell id="Oie51b7RRHgQ4mlDYI3o-30" value="Profile" style="swimlane;fontStyle=1;align=center;verticalAlign=top;childLayout=stackLayout;horizontal=1;startSize=26;horizontalStack=0;resizeParent=1;resizeParentMax=0;resizeLast=0;collapsible=1;marginBottom=0;whiteSpace=wrap;html=1;" vertex="1" parent="1">
          <mxGeometry x="1490" y="360" width="160" height="86" as="geometry" />
        </mxCell>
        <mxCell id="Oie51b7RRHgQ4mlDYI3o-31" value="- language" style="text;strokeColor=none;fillColor=none;align=left;verticalAlign=top;spacingLeft=4;spacingRight=4;overflow=hidden;rotatable=0;points=[[0,0.5],[1,0.5]];portConstraint=eastwest;whiteSpace=wrap;html=1;" vertex="1" parent="Oie51b7RRHgQ4mlDYI3o-30">
          <mxGeometry y="26" width="160" height="26" as="geometry" />
        </mxCell>
        <mxCell id="Oie51b7RRHgQ4mlDYI3o-32" value="" style="line;strokeWidth=1;fillColor=none;align=left;verticalAlign=middle;spacingTop=-1;spacingLeft=3;spacingRight=3;rotatable=0;labelPosition=right;points=[];portConstraint=eastwest;strokeColor=inherit;" vertex="1" parent="Oie51b7RRHgQ4mlDYI3o-30">
          <mxGeometry y="52" width="160" height="8" as="geometry" />
        </mxCell>
        <mxCell id="Oie51b7RRHgQ4mlDYI3o-33" value="+ method(type): type" style="text;strokeColor=none;fillColor=none;align=left;verticalAlign=top;spacingLeft=4;spacingRight=4;overflow=hidden;rotatable=0;points=[[0,0.5],[1,0.5]];portConstraint=eastwest;whiteSpace=wrap;html=1;" vertex="1" parent="Oie51b7RRHgQ4mlDYI3o-30">
          <mxGeometry y="60" width="160" height="26" as="geometry" />
        </mxCell>
        <mxCell id="Oie51b7RRHgQ4mlDYI3o-34" value="Accident" style="swimlane;fontStyle=1;align=center;verticalAlign=top;childLayout=stackLayout;horizontal=1;startSize=26;horizontalStack=0;resizeParent=1;resizeParentMax=0;resizeLast=0;collapsible=1;marginBottom=0;whiteSpace=wrap;html=1;" vertex="1" parent="1">
          <mxGeometry x="310" y="400" width="160" height="110" as="geometry" />
        </mxCell>
        <mxCell id="Oie51b7RRHgQ4mlDYI3o-35" value="&lt;div&gt;- date&lt;/div&gt;&lt;div&gt;- at fault driver&lt;/div&gt;&lt;div&gt;&lt;br&gt;&lt;/div&gt;" style="text;strokeColor=none;fillColor=none;align=left;verticalAlign=top;spacingLeft=4;spacingRight=4;overflow=hidden;rotatable=0;points=[[0,0.5],[1,0.5]];portConstraint=eastwest;whiteSpace=wrap;html=1;" vertex="1" parent="Oie51b7RRHgQ4mlDYI3o-34">
          <mxGeometry y="26" width="160" height="34" as="geometry" />
        </mxCell>
        <mxCell id="Oie51b7RRHgQ4mlDYI3o-36" value="" style="line;strokeWidth=1;fillColor=none;align=left;verticalAlign=middle;spacingTop=-1;spacingLeft=3;spacingRight=3;rotatable=0;labelPosition=right;points=[];portConstraint=eastwest;strokeColor=inherit;" vertex="1" parent="Oie51b7RRHgQ4mlDYI3o-34">
          <mxGeometry y="60" width="160" height="8" as="geometry" />
        </mxCell>
        <mxCell id="Oie51b7RRHgQ4mlDYI3o-37" value="+ change in insurance premium" style="text;strokeColor=none;fillColor=none;align=left;verticalAlign=top;spacingLeft=4;spacingRight=4;overflow=hidden;rotatable=0;points=[[0,0.5],[1,0.5]];portConstraint=eastwest;whiteSpace=wrap;html=1;" vertex="1" parent="Oie51b7RRHgQ4mlDYI3o-34">
          <mxGeometry y="68" width="160" height="42" as="geometry" />
        </mxCell>
        <mxCell id="Oie51b7RRHgQ4mlDYI3o-38" value="Service Rep" style="swimlane;fontStyle=1;align=center;verticalAlign=top;childLayout=stackLayout;horizontal=1;startSize=26;horizontalStack=0;resizeParent=1;resizeParentMax=0;resizeLast=0;collapsible=1;marginBottom=0;whiteSpace=wrap;html=1;" vertex="1" parent="1">
          <mxGeometry x="1600" y="-70" width="160" height="86" as="geometry" />
        </mxCell>
        <mxCell id="Oie51b7RRHgQ4mlDYI3o-39" value="- customer information" style="text;strokeColor=none;fillColor=none;align=left;verticalAlign=top;spacingLeft=4;spacingRight=4;overflow=hidden;rotatable=0;points=[[0,0.5],[1,0.5]];portConstraint=eastwest;whiteSpace=wrap;html=1;" vertex="1" parent="Oie51b7RRHgQ4mlDYI3o-38">
          <mxGeometry y="26" width="160" height="26" as="geometry" />
        </mxCell>
        <mxCell id="Oie51b7RRHgQ4mlDYI3o-40" value="" style="line;strokeWidth=1;fillColor=none;align=left;verticalAlign=middle;spacingTop=-1;spacingLeft=3;spacingRight=3;rotatable=0;labelPosition=right;points=[];portConstraint=eastwest;strokeColor=inherit;" vertex="1" parent="Oie51b7RRHgQ4mlDYI3o-38">
          <mxGeometry y="52" width="160" height="8" as="geometry" />
        </mxCell>
        <mxCell id="Oie51b7RRHgQ4mlDYI3o-41" value="+ provide assistance" style="text;strokeColor=none;fillColor=none;align=left;verticalAlign=top;spacingLeft=4;spacingRight=4;overflow=hidden;rotatable=0;points=[[0,0.5],[1,0.5]];portConstraint=eastwest;whiteSpace=wrap;html=1;" vertex="1" parent="Oie51b7RRHgQ4mlDYI3o-38">
          <mxGeometry y="60" width="160" height="26" as="geometry" />
        </mxCell>
        <mxCell id="Oie51b7RRHgQ4mlDYI3o-42" value="Database" style="swimlane;fontStyle=1;align=center;verticalAlign=top;childLayout=stackLayout;horizontal=1;startSize=26;horizontalStack=0;resizeParent=1;resizeParentMax=0;resizeLast=0;collapsible=1;marginBottom=0;whiteSpace=wrap;html=1;" vertex="1" parent="1">
          <mxGeometry x="1180" y="-120" width="160" height="86" as="geometry" />
        </mxCell>
        <mxCell id="Oie51b7RRHgQ4mlDYI3o-43" value="+ field: type" style="text;strokeColor=none;fillColor=none;align=left;verticalAlign=top;spacingLeft=4;spacingRight=4;overflow=hidden;rotatable=0;points=[[0,0.5],[1,0.5]];portConstraint=eastwest;whiteSpace=wrap;html=1;" vertex="1" parent="Oie51b7RRHgQ4mlDYI3o-42">
          <mxGeometry y="26" width="160" height="26" as="geometry" />
        </mxCell>
        <mxCell id="Oie51b7RRHgQ4mlDYI3o-44" value="" style="line;strokeWidth=1;fillColor=none;align=left;verticalAlign=middle;spacingTop=-1;spacingLeft=3;spacingRight=3;rotatable=0;labelPosition=right;points=[];portConstraint=eastwest;strokeColor=inherit;" vertex="1" parent="Oie51b7RRHgQ4mlDYI3o-42">
          <mxGeometry y="52" width="160" height="8" as="geometry" />
        </mxCell>
        <mxCell id="Oie51b7RRHgQ4mlDYI3o-45" value="+ method(type): type" style="text;strokeColor=none;fillColor=none;align=left;verticalAlign=top;spacingLeft=4;spacingRight=4;overflow=hidden;rotatable=0;points=[[0,0.5],[1,0.5]];portConstraint=eastwest;whiteSpace=wrap;html=1;" vertex="1" parent="Oie51b7RRHgQ4mlDYI3o-42">
          <mxGeometry y="60" width="160" height="26" as="geometry" />
        </mxCell>
        <mxCell id="Oie51b7RRHgQ4mlDYI3o-46" value="Auto Policy" style="swimlane;fontStyle=1;align=center;verticalAlign=top;childLayout=stackLayout;horizontal=1;startSize=26;horizontalStack=0;resizeParent=1;resizeParentMax=0;resizeLast=0;collapsible=1;marginBottom=0;whiteSpace=wrap;html=1;" vertex="1" parent="1">
          <mxGeometry x="810" y="400" width="160" height="134" as="geometry" />
        </mxCell>
        <mxCell id="Oie51b7RRHgQ4mlDYI3o-47" value="&lt;div&gt;- principal driver&lt;/div&gt;&lt;div&gt;- make&lt;/div&gt;&lt;div&gt;- model&lt;/div&gt;&lt;div&gt;- year&lt;br&gt;&lt;/div&gt;&lt;div&gt;-&amp;nbsp;&lt;span style=&quot;background-color: initial;&quot;&gt;deductible&lt;/span&gt;&lt;/div&gt;" style="text;strokeColor=none;fillColor=none;align=left;verticalAlign=top;spacingLeft=4;spacingRight=4;overflow=hidden;rotatable=0;points=[[0,0.5],[1,0.5]];portConstraint=eastwest;whiteSpace=wrap;html=1;" vertex="1" parent="Oie51b7RRHgQ4mlDYI3o-46">
          <mxGeometry y="26" width="160" height="74" as="geometry" />
        </mxCell>
        <mxCell id="Oie51b7RRHgQ4mlDYI3o-48" value="" style="line;strokeWidth=1;fillColor=none;align=left;verticalAlign=middle;spacingTop=-1;spacingLeft=3;spacingRight=3;rotatable=0;labelPosition=right;points=[];portConstraint=eastwest;strokeColor=inherit;" vertex="1" parent="Oie51b7RRHgQ4mlDYI3o-46">
          <mxGeometry y="100" width="160" height="8" as="geometry" />
        </mxCell>
        <mxCell id="Oie51b7RRHgQ4mlDYI3o-49" value="&amp;nbsp;" style="text;strokeColor=none;fillColor=none;align=left;verticalAlign=top;spacingLeft=4;spacingRight=4;overflow=hidden;rotatable=0;points=[[0,0.5],[1,0.5]];portConstraint=eastwest;whiteSpace=wrap;html=1;" vertex="1" parent="Oie51b7RRHgQ4mlDYI3o-46">
          <mxGeometry y="108" width="160" height="26" as="geometry" />
        </mxCell>
        <mxCell id="Oie51b7RRHgQ4mlDYI3o-50" value="Home Policy" style="swimlane;fontStyle=1;align=center;verticalAlign=top;childLayout=stackLayout;horizontal=1;startSize=26;horizontalStack=0;resizeParent=1;resizeParentMax=0;resizeLast=0;collapsible=1;marginBottom=0;whiteSpace=wrap;html=1;" vertex="1" parent="1">
          <mxGeometry x="1030" y="400" width="160" height="164" as="geometry" />
        </mxCell>
        <mxCell id="Oie51b7RRHgQ4mlDYI3o-51" value="&lt;div&gt;- property&lt;/div&gt;&lt;div&gt;- replacement cost value&lt;/div&gt;&lt;div&gt;- liability limit&lt;/div&gt;&lt;div&gt;- deductible&lt;/div&gt;&lt;div&gt;- content insurance limit&lt;/div&gt;" style="text;strokeColor=none;fillColor=none;align=left;verticalAlign=top;spacingLeft=4;spacingRight=4;overflow=hidden;rotatable=0;points=[[0,0.5],[1,0.5]];portConstraint=eastwest;whiteSpace=wrap;html=1;" vertex="1" parent="Oie51b7RRHgQ4mlDYI3o-50">
          <mxGeometry y="26" width="160" height="104" as="geometry" />
        </mxCell>
        <mxCell id="Oie51b7RRHgQ4mlDYI3o-52" value="" style="line;strokeWidth=1;fillColor=none;align=left;verticalAlign=middle;spacingTop=-1;spacingLeft=3;spacingRight=3;rotatable=0;labelPosition=right;points=[];portConstraint=eastwest;strokeColor=inherit;" vertex="1" parent="Oie51b7RRHgQ4mlDYI3o-50">
          <mxGeometry y="130" width="160" height="8" as="geometry" />
        </mxCell>
        <mxCell id="Oie51b7RRHgQ4mlDYI3o-53" value="&lt;div&gt;+ calculate premium&lt;/div&gt;" style="text;strokeColor=none;fillColor=none;align=left;verticalAlign=top;spacingLeft=4;spacingRight=4;overflow=hidden;rotatable=0;points=[[0,0.5],[1,0.5]];portConstraint=eastwest;whiteSpace=wrap;html=1;" vertex="1" parent="Oie51b7RRHgQ4mlDYI3o-50">
          <mxGeometry y="138" width="160" height="26" as="geometry" />
        </mxCell>
        <mxCell id="Oie51b7RRHgQ4mlDYI3o-54" value="" style="endArrow=block;dashed=1;endFill=0;endSize=12;html=1;rounded=0;entryX=0.5;entryY=1;entryDx=0;entryDy=0;exitX=0.5;exitY=0;exitDx=0;exitDy=0;" edge="1" parent="1" source="Oie51b7RRHgQ4mlDYI3o-46" target="Oie51b7RRHgQ4mlDYI3o-22">
          <mxGeometry width="160" relative="1" as="geometry">
            <mxPoint x="830" y="360" as="sourcePoint" />
            <mxPoint x="990" y="360" as="targetPoint" />
            <Array as="points">
              <mxPoint x="890" y="370" />
              <mxPoint x="1000" y="370" />
            </Array>
          </mxGeometry>
        </mxCell>
        <mxCell id="Oie51b7RRHgQ4mlDYI3o-56" value="" style="endArrow=none;html=1;rounded=0;exitX=0.5;exitY=0;exitDx=0;exitDy=0;" edge="1" parent="1" source="Oie51b7RRHgQ4mlDYI3o-46">
          <mxGeometry width="50" height="50" relative="1" as="geometry">
            <mxPoint x="750" y="380" as="sourcePoint" />
            <mxPoint x="1000" y="350" as="targetPoint" />
            <Array as="points">
              <mxPoint x="890" y="370" />
              <mxPoint x="1000" y="370" />
            </Array>
          </mxGeometry>
        </mxCell>
        <mxCell id="Oie51b7RRHgQ4mlDYI3o-57" value="" style="endArrow=none;html=1;rounded=0;exitX=0.5;exitY=0;exitDx=0;exitDy=0;" edge="1" parent="1" source="Oie51b7RRHgQ4mlDYI3o-50">
          <mxGeometry width="50" height="50" relative="1" as="geometry">
            <mxPoint x="1020" y="380" as="sourcePoint" />
            <mxPoint x="1000" y="350" as="targetPoint" />
            <Array as="points">
              <mxPoint x="1110" y="370" />
              <mxPoint x="1000" y="370" />
            </Array>
          </mxGeometry>
        </mxCell>
        <mxCell id="Oie51b7RRHgQ4mlDYI3o-73" value="Website" style="swimlane;fontStyle=1;align=center;verticalAlign=top;childLayout=stackLayout;horizontal=1;startSize=26;horizontalStack=0;resizeParent=1;resizeParentMax=0;resizeLast=0;collapsible=1;marginBottom=0;whiteSpace=wrap;html=1;" vertex="1" parent="1">
          <mxGeometry x="1490" y="106" width="160" height="170" as="geometry" />
        </mxCell>
        <mxCell id="Oie51b7RRHgQ4mlDYI3o-74" value="&amp;nbsp;" style="text;strokeColor=none;fillColor=none;align=left;verticalAlign=top;spacingLeft=4;spacingRight=4;overflow=hidden;rotatable=0;points=[[0,0.5],[1,0.5]];portConstraint=eastwest;whiteSpace=wrap;html=1;" vertex="1" parent="Oie51b7RRHgQ4mlDYI3o-73">
          <mxGeometry y="26" width="160" height="34" as="geometry" />
        </mxCell>
        <mxCell id="Oie51b7RRHgQ4mlDYI3o-75" value="" style="line;strokeWidth=1;fillColor=none;align=left;verticalAlign=middle;spacingTop=-1;spacingLeft=3;spacingRight=3;rotatable=0;labelPosition=right;points=[];portConstraint=eastwest;strokeColor=inherit;" vertex="1" parent="Oie51b7RRHgQ4mlDYI3o-73">
          <mxGeometry y="60" width="160" height="8" as="geometry" />
        </mxCell>
        <mxCell id="Oie51b7RRHgQ4mlDYI3o-76" value="&lt;div&gt;+ login&lt;/div&gt;&lt;div&gt;+ register new user&lt;/div&gt;&lt;div&gt;+ quote a policy&lt;/div&gt;&lt;div&gt;+ renew a policy&lt;/div&gt;&lt;div&gt;+ cancel a policy&lt;/div&gt;&lt;div&gt;+ contact service rep&lt;br&gt;&lt;/div&gt;" style="text;strokeColor=none;fillColor=none;align=left;verticalAlign=top;spacingLeft=4;spacingRight=4;overflow=hidden;rotatable=0;points=[[0,0.5],[1,0.5]];portConstraint=eastwest;whiteSpace=wrap;html=1;" vertex="1" parent="Oie51b7RRHgQ4mlDYI3o-73">
          <mxGeometry y="68" width="160" height="102" as="geometry" />
        </mxCell>
        <mxCell id="Oie51b7RRHgQ4mlDYI3o-77" value="Mobile App" style="swimlane;fontStyle=1;align=center;verticalAlign=top;childLayout=stackLayout;horizontal=1;startSize=26;horizontalStack=0;resizeParent=1;resizeParentMax=0;resizeLast=0;collapsible=1;marginBottom=0;whiteSpace=wrap;html=1;" vertex="1" parent="1">
          <mxGeometry x="1710" y="106" width="160" height="140" as="geometry" />
        </mxCell>
        <mxCell id="Oie51b7RRHgQ4mlDYI3o-78" value="&amp;nbsp;" style="text;strokeColor=none;fillColor=none;align=left;verticalAlign=top;spacingLeft=4;spacingRight=4;overflow=hidden;rotatable=0;points=[[0,0.5],[1,0.5]];portConstraint=eastwest;whiteSpace=wrap;html=1;" vertex="1" parent="Oie51b7RRHgQ4mlDYI3o-77">
          <mxGeometry y="26" width="160" height="34" as="geometry" />
        </mxCell>
        <mxCell id="Oie51b7RRHgQ4mlDYI3o-79" value="" style="line;strokeWidth=1;fillColor=none;align=left;verticalAlign=middle;spacingTop=-1;spacingLeft=3;spacingRight=3;rotatable=0;labelPosition=right;points=[];portConstraint=eastwest;strokeColor=inherit;" vertex="1" parent="Oie51b7RRHgQ4mlDYI3o-77">
          <mxGeometry y="60" width="160" height="8" as="geometry" />
        </mxCell>
        <mxCell id="Oie51b7RRHgQ4mlDYI3o-80" value="&lt;div&gt;+ login&lt;/div&gt;&lt;div&gt;+ review policy details&lt;/div&gt;&lt;div&gt;+ home / auto tips&lt;/div&gt;&lt;div&gt;+ contact service rep&lt;br&gt;&lt;/div&gt;" style="text;strokeColor=none;fillColor=none;align=left;verticalAlign=top;spacingLeft=4;spacingRight=4;overflow=hidden;rotatable=0;points=[[0,0.5],[1,0.5]];portConstraint=eastwest;whiteSpace=wrap;html=1;" vertex="1" parent="Oie51b7RRHgQ4mlDYI3o-77">
          <mxGeometry y="68" width="160" height="72" as="geometry" />
        </mxCell>
        <mxCell id="Oie51b7RRHgQ4mlDYI3o-81" value="Property" style="swimlane;fontStyle=1;align=center;verticalAlign=top;childLayout=stackLayout;horizontal=1;startSize=26;horizontalStack=0;resizeParent=1;resizeParentMax=0;resizeLast=0;collapsible=1;marginBottom=0;whiteSpace=wrap;html=1;" vertex="1" parent="1">
          <mxGeometry x="1300" y="400" width="160" height="124" as="geometry" />
        </mxCell>
        <mxCell id="Oie51b7RRHgQ4mlDYI3o-82" value="&lt;div&gt;- age built&lt;/div&gt;&lt;div&gt;- dwelling type&lt;/div&gt;&lt;div&gt;- heating type&lt;/div&gt;&lt;div&gt;- location&lt;br&gt;&lt;/div&gt;" style="text;strokeColor=none;fillColor=none;align=left;verticalAlign=top;spacingLeft=4;spacingRight=4;overflow=hidden;rotatable=0;points=[[0,0.5],[1,0.5]];portConstraint=eastwest;whiteSpace=wrap;html=1;" vertex="1" parent="Oie51b7RRHgQ4mlDYI3o-81">
          <mxGeometry y="26" width="160" height="64" as="geometry" />
        </mxCell>
        <mxCell id="Oie51b7RRHgQ4mlDYI3o-83" value="" style="line;strokeWidth=1;fillColor=none;align=left;verticalAlign=middle;spacingTop=-1;spacingLeft=3;spacingRight=3;rotatable=0;labelPosition=right;points=[];portConstraint=eastwest;strokeColor=inherit;" vertex="1" parent="Oie51b7RRHgQ4mlDYI3o-81">
          <mxGeometry y="90" width="160" height="8" as="geometry" />
        </mxCell>
        <mxCell id="Oie51b7RRHgQ4mlDYI3o-84" value="&amp;nbsp;" style="text;strokeColor=none;fillColor=none;align=left;verticalAlign=top;spacingLeft=4;spacingRight=4;overflow=hidden;rotatable=0;points=[[0,0.5],[1,0.5]];portConstraint=eastwest;whiteSpace=wrap;html=1;" vertex="1" parent="Oie51b7RRHgQ4mlDYI3o-81">
          <mxGeometry y="98" width="160" height="26" as="geometry" />
        </mxCell>
        <mxCell id="Oie51b7RRHgQ4mlDYI3o-85" value="Principal Driver" style="swimlane;fontStyle=1;align=center;verticalAlign=top;childLayout=stackLayout;horizontal=1;startSize=26;horizontalStack=0;resizeParent=1;resizeParentMax=0;resizeLast=0;collapsible=1;marginBottom=0;whiteSpace=wrap;html=1;" vertex="1" parent="1">
          <mxGeometry x="570" y="400" width="160" height="114" as="geometry" />
        </mxCell>
        <mxCell id="Oie51b7RRHgQ4mlDYI3o-94" value="" style="endArrow=none;html=1;rounded=0;exitX=0.931;exitY=0;exitDx=0;exitDy=0;exitPerimeter=0;entryX=0.194;entryY=0;entryDx=0;entryDy=0;entryPerimeter=0;" edge="1" parent="Oie51b7RRHgQ4mlDYI3o-85">
          <mxGeometry width="50" height="50" relative="1" as="geometry">
            <mxPoint x="120" y="26" as="sourcePoint" />
            <mxPoint x="272" y="26" as="targetPoint" />
          </mxGeometry>
        </mxCell>
        <mxCell id="Oie51b7RRHgQ4mlDYI3o-86" value="&lt;div&gt;- age&lt;br&gt;&lt;/div&gt;&lt;div&gt;- number of accidents&lt;br&gt;&lt;/div&gt;&lt;div&gt;- address&lt;/div&gt;" style="text;strokeColor=none;fillColor=none;align=left;verticalAlign=top;spacingLeft=4;spacingRight=4;overflow=hidden;rotatable=0;points=[[0,0.5],[1,0.5]];portConstraint=eastwest;whiteSpace=wrap;html=1;" vertex="1" parent="Oie51b7RRHgQ4mlDYI3o-85">
          <mxGeometry y="26" width="160" height="54" as="geometry" />
        </mxCell>
        <mxCell id="Oie51b7RRHgQ4mlDYI3o-87" value="" style="line;strokeWidth=1;fillColor=none;align=left;verticalAlign=middle;spacingTop=-1;spacingLeft=3;spacingRight=3;rotatable=0;labelPosition=right;points=[];portConstraint=eastwest;strokeColor=inherit;" vertex="1" parent="Oie51b7RRHgQ4mlDYI3o-85">
          <mxGeometry y="80" width="160" height="8" as="geometry" />
        </mxCell>
        <mxCell id="Oie51b7RRHgQ4mlDYI3o-88" value="&amp;nbsp;" style="text;strokeColor=none;fillColor=none;align=left;verticalAlign=top;spacingLeft=4;spacingRight=4;overflow=hidden;rotatable=0;points=[[0,0.5],[1,0.5]];portConstraint=eastwest;whiteSpace=wrap;html=1;" vertex="1" parent="Oie51b7RRHgQ4mlDYI3o-85">
          <mxGeometry y="88" width="160" height="26" as="geometry" />
        </mxCell>
        <mxCell id="Oie51b7RRHgQ4mlDYI3o-89" value="Vehicle" style="swimlane;fontStyle=1;align=center;verticalAlign=top;childLayout=stackLayout;horizontal=1;startSize=26;horizontalStack=0;resizeParent=1;resizeParentMax=0;resizeLast=0;collapsible=1;marginBottom=0;whiteSpace=wrap;html=1;" vertex="1" parent="1">
          <mxGeometry x="570" y="550" width="160" height="114" as="geometry" />
        </mxCell>
        <mxCell id="Oie51b7RRHgQ4mlDYI3o-90" value="&lt;div&gt;- make&lt;/div&gt;&lt;div&gt;- model&lt;/div&gt;&lt;div&gt;- year&lt;br&gt;&lt;/div&gt;" style="text;strokeColor=none;fillColor=none;align=left;verticalAlign=top;spacingLeft=4;spacingRight=4;overflow=hidden;rotatable=0;points=[[0,0.5],[1,0.5]];portConstraint=eastwest;whiteSpace=wrap;html=1;" vertex="1" parent="Oie51b7RRHgQ4mlDYI3o-89">
          <mxGeometry y="26" width="160" height="54" as="geometry" />
        </mxCell>
        <mxCell id="Oie51b7RRHgQ4mlDYI3o-91" value="" style="line;strokeWidth=1;fillColor=none;align=left;verticalAlign=middle;spacingTop=-1;spacingLeft=3;spacingRight=3;rotatable=0;labelPosition=right;points=[];portConstraint=eastwest;strokeColor=inherit;" vertex="1" parent="Oie51b7RRHgQ4mlDYI3o-89">
          <mxGeometry y="80" width="160" height="8" as="geometry" />
        </mxCell>
        <mxCell id="Oie51b7RRHgQ4mlDYI3o-92" value="&amp;nbsp;" style="text;strokeColor=none;fillColor=none;align=left;verticalAlign=top;spacingLeft=4;spacingRight=4;overflow=hidden;rotatable=0;points=[[0,0.5],[1,0.5]];portConstraint=eastwest;whiteSpace=wrap;html=1;" vertex="1" parent="Oie51b7RRHgQ4mlDYI3o-89">
          <mxGeometry y="88" width="160" height="26" as="geometry" />
        </mxCell>
        <mxCell id="Oie51b7RRHgQ4mlDYI3o-93" value="" style="endArrow=none;html=1;rounded=0;exitX=0.931;exitY=0;exitDx=0;exitDy=0;exitPerimeter=0;entryX=0.194;entryY=0;entryDx=0;entryDy=0;entryPerimeter=0;" edge="1" parent="1" source="Oie51b7RRHgQ4mlDYI3o-51" target="Oie51b7RRHgQ4mlDYI3o-82">
          <mxGeometry width="50" height="50" relative="1" as="geometry">
            <mxPoint x="1200" y="430" as="sourcePoint" />
            <mxPoint x="1250" y="380" as="targetPoint" />
          </mxGeometry>
        </mxCell>
        <mxCell id="Oie51b7RRHgQ4mlDYI3o-95" value="" style="endArrow=none;html=1;rounded=0;exitX=1;exitY=0.5;exitDx=0;exitDy=0;entryX=0;entryY=0.309;entryDx=0;entryDy=0;entryPerimeter=0;" edge="1" parent="1" source="Oie51b7RRHgQ4mlDYI3o-35" target="Oie51b7RRHgQ4mlDYI3o-86">
          <mxGeometry width="50" height="50" relative="1" as="geometry">
            <mxPoint x="920" y="460" as="sourcePoint" />
            <mxPoint x="970" y="410" as="targetPoint" />
          </mxGeometry>
        </mxCell>
        <mxCell id="Oie51b7RRHgQ4mlDYI3o-97" value="&amp;lt; has" style="text;html=1;align=center;verticalAlign=middle;whiteSpace=wrap;rounded=0;" vertex="1" parent="1">
          <mxGeometry x="490" y="410" width="60" height="30" as="geometry" />
        </mxCell>
        <mxCell id="Oie51b7RRHgQ4mlDYI3o-98" value="" style="endArrow=none;html=1;rounded=0;exitX=0.972;exitY=-0.005;exitDx=0;exitDy=0;exitPerimeter=0;entryX=0.072;entryY=-0.011;entryDx=0;entryDy=0;entryPerimeter=0;" edge="1" parent="1">
          <mxGeometry width="50" height="50" relative="1" as="geometry">
            <mxPoint x="1064" y="130.02000000000007" as="sourcePoint" />
            <mxPoint x="1180" y="129.99600000000007" as="targetPoint" />
          </mxGeometry>
        </mxCell>
        <mxCell id="Oie51b7RRHgQ4mlDYI3o-99" value="&amp;lt; has" style="text;html=1;align=center;verticalAlign=middle;whiteSpace=wrap;rounded=0;" vertex="1" parent="1">
          <mxGeometry x="1100" y="100" width="60" height="30" as="geometry" />
        </mxCell>
        <mxCell id="Oie51b7RRHgQ4mlDYI3o-100" value="" style="endArrow=none;html=1;rounded=0;exitX=0.972;exitY=-0.005;exitDx=0;exitDy=0;exitPerimeter=0;entryX=0.003;entryY=-0.058;entryDx=0;entryDy=0;entryPerimeter=0;" edge="1" parent="1" target="Oie51b7RRHgQ4mlDYI3o-74">
          <mxGeometry width="50" height="50" relative="1" as="geometry">
            <mxPoint x="1340" y="130.02000000000007" as="sourcePoint" />
            <mxPoint x="1456" y="129.99600000000007" as="targetPoint" />
          </mxGeometry>
        </mxCell>
        <mxCell id="Oie51b7RRHgQ4mlDYI3o-101" value="canAccess &amp;gt;" style="text;html=1;align=center;verticalAlign=middle;whiteSpace=wrap;rounded=0;" vertex="1" parent="1">
          <mxGeometry x="1370" y="100" width="80" height="30" as="geometry" />
        </mxCell>
        <mxCell id="Oie51b7RRHgQ4mlDYI3o-102" value="1" style="text;html=1;align=center;verticalAlign=middle;whiteSpace=wrap;rounded=0;" vertex="1" parent="1">
          <mxGeometry x="1410" y="130" width="60" height="30" as="geometry" />
        </mxCell>
        <mxCell id="Oie51b7RRHgQ4mlDYI3o-103" value="1" style="text;html=1;align=center;verticalAlign=middle;whiteSpace=wrap;rounded=0;" vertex="1" parent="1">
          <mxGeometry x="1330" y="130" width="60" height="30" as="geometry" />
        </mxCell>
        <mxCell id="Oie51b7RRHgQ4mlDYI3o-104" value="1" style="text;html=1;align=center;verticalAlign=middle;whiteSpace=wrap;rounded=0;" vertex="1" parent="1">
          <mxGeometry x="1140" y="132" width="60" height="30" as="geometry" />
        </mxCell>
        <mxCell id="Oie51b7RRHgQ4mlDYI3o-105" value="1..2" style="text;html=1;align=center;verticalAlign=middle;whiteSpace=wrap;rounded=0;" vertex="1" parent="1">
          <mxGeometry x="1070" y="130" width="60" height="30" as="geometry" />
        </mxCell>
        <mxCell id="Oie51b7RRHgQ4mlDYI3o-109" value="1" style="text;html=1;align=center;verticalAlign=middle;whiteSpace=wrap;rounded=0;" vertex="1" parent="1">
          <mxGeometry x="520" y="440" width="60" height="30" as="geometry" />
        </mxCell>
        <mxCell id="Oie51b7RRHgQ4mlDYI3o-110" value="0..*" style="text;html=1;align=center;verticalAlign=middle;whiteSpace=wrap;rounded=0;" vertex="1" parent="1">
          <mxGeometry x="460" y="440" width="60" height="30" as="geometry" />
        </mxCell>
        <mxCell id="Oie51b7RRHgQ4mlDYI3o-112" value="1" style="text;html=1;align=center;verticalAlign=middle;whiteSpace=wrap;rounded=0;" vertex="1" parent="1">
          <mxGeometry x="1250" y="427" width="60" height="30" as="geometry" />
        </mxCell>
        <mxCell id="Oie51b7RRHgQ4mlDYI3o-113" value="1" style="text;html=1;align=center;verticalAlign=middle;whiteSpace=wrap;rounded=0;" vertex="1" parent="1">
          <mxGeometry x="1170" y="427" width="60" height="30" as="geometry" />
        </mxCell>
        <mxCell id="Oie51b7RRHgQ4mlDYI3o-114" value="1" style="text;html=1;align=center;verticalAlign=middle;whiteSpace=wrap;rounded=0;" vertex="1" parent="1">
          <mxGeometry x="770" y="430" width="60" height="30" as="geometry" />
        </mxCell>
        <mxCell id="Oie51b7RRHgQ4mlDYI3o-115" value="1" style="text;html=1;align=center;verticalAlign=middle;whiteSpace=wrap;rounded=0;" vertex="1" parent="1">
          <mxGeometry x="710" y="430" width="60" height="30" as="geometry" />
        </mxCell>
        <mxCell id="Oie51b7RRHgQ4mlDYI3o-116" value="&amp;lt; AssignedTo" style="text;html=1;align=center;verticalAlign=middle;whiteSpace=wrap;rounded=0;" vertex="1" parent="1">
          <mxGeometry x="730" y="360" width="80" height="30" as="geometry" />
        </mxCell>
        <mxCell id="Oie51b7RRHgQ4mlDYI3o-117" value="AssignedTo &amp;gt;" style="text;html=1;align=center;verticalAlign=middle;whiteSpace=wrap;rounded=0;" vertex="1" parent="1">
          <mxGeometry x="1200" y="360" width="80" height="30" as="geometry" />
        </mxCell>
        <mxCell id="Oie51b7RRHgQ4mlDYI3o-118" value="" style="endArrow=none;html=1;rounded=0;entryX=0.252;entryY=0.985;entryDx=0;entryDy=0;entryPerimeter=0;exitX=0.997;exitY=0.002;exitDx=0;exitDy=0;exitPerimeter=0;" edge="1" parent="1" source="Oie51b7RRHgQ4mlDYI3o-90" target="Oie51b7RRHgQ4mlDYI3o-49">
          <mxGeometry width="50" height="50" relative="1" as="geometry">
            <mxPoint x="810" y="640" as="sourcePoint" />
            <mxPoint x="860" y="590" as="targetPoint" />
            <Array as="points">
              <mxPoint x="850" y="576" />
            </Array>
          </mxGeometry>
        </mxCell>
        <mxCell id="Oie51b7RRHgQ4mlDYI3o-119" value="&amp;lt; AssignedTo" style="text;html=1;align=center;verticalAlign=middle;whiteSpace=wrap;rounded=0;" vertex="1" parent="1">
          <mxGeometry x="750" y="540" width="80" height="30" as="geometry" />
        </mxCell>
        <mxCell id="Oie51b7RRHgQ4mlDYI3o-120" value="1" style="text;html=1;align=center;verticalAlign=middle;whiteSpace=wrap;rounded=0;" vertex="1" parent="1">
          <mxGeometry x="780" y="570" width="60" height="30" as="geometry" />
        </mxCell>
        <mxCell id="Oie51b7RRHgQ4mlDYI3o-121" value="1" style="text;html=1;align=center;verticalAlign=middle;whiteSpace=wrap;rounded=0;" vertex="1" parent="1">
          <mxGeometry x="720" y="570" width="60" height="30" as="geometry" />
        </mxCell>
        <mxCell id="Oie51b7RRHgQ4mlDYI3o-122" value="" style="endArrow=none;html=1;rounded=0;entryX=0.002;entryY=0;entryDx=0;entryDy=0;entryPerimeter=0;exitX=0.5;exitY=0;exitDx=0;exitDy=0;" edge="1" parent="1" source="Oie51b7RRHgQ4mlDYI3o-22" target="Oie51b7RRHgQ4mlDYI3o-43">
          <mxGeometry width="50" height="50" relative="1" as="geometry">
            <mxPoint x="970" y="-24" as="sourcePoint" />
            <mxPoint x="1200" y="46" as="targetPoint" />
            <Array as="points">
              <mxPoint x="1000" y="-94" />
            </Array>
          </mxGeometry>
        </mxCell>
        <mxCell id="Oie51b7RRHgQ4mlDYI3o-123" value="" style="endArrow=none;html=1;rounded=0;entryX=0.499;entryY=0.004;entryDx=0;entryDy=0;exitX=1.001;exitY=-0.003;exitDx=0;exitDy=0;exitPerimeter=0;entryPerimeter=0;" edge="1" parent="1" source="Oie51b7RRHgQ4mlDYI3o-43" target="Oie51b7RRHgQ4mlDYI3o-31">
          <mxGeometry width="50" height="50" relative="1" as="geometry">
            <mxPoint x="1460" y="10" as="sourcePoint" />
            <mxPoint x="1510" y="-40" as="targetPoint" />
            <Array as="points">
              <mxPoint x="1540" y="-94" />
              <mxPoint x="1920" y="-94" />
              <mxPoint x="1920" y="150" />
              <mxPoint x="1920" y="386" />
              <mxPoint x="1680" y="386" />
            </Array>
          </mxGeometry>
        </mxCell>
        <mxCell id="Oie51b7RRHgQ4mlDYI3o-124" value="&amp;lt; StoredInside" style="text;html=1;align=center;verticalAlign=middle;whiteSpace=wrap;rounded=0;" vertex="1" parent="1">
          <mxGeometry x="1410" y="-130" width="90" height="30" as="geometry" />
        </mxCell>
        <mxCell id="Oie51b7RRHgQ4mlDYI3o-125" value="StoredInside &amp;gt;" style="text;html=1;align=center;verticalAlign=middle;whiteSpace=wrap;rounded=0;" vertex="1" parent="1">
          <mxGeometry x="1040" y="-130" width="90" height="30" as="geometry" />
        </mxCell>
        <mxCell id="Oie51b7RRHgQ4mlDYI3o-126" value="1" style="text;html=1;align=center;verticalAlign=middle;whiteSpace=wrap;rounded=0;" vertex="1" parent="1">
          <mxGeometry x="1440" y="-100" width="60" height="30" as="geometry" />
        </mxCell>
        <mxCell id="Oie51b7RRHgQ4mlDYI3o-127" value="1" style="text;html=1;align=center;verticalAlign=middle;whiteSpace=wrap;rounded=0;" vertex="1" parent="1">
          <mxGeometry x="1360" y="-100" width="60" height="30" as="geometry" />
        </mxCell>
        <mxCell id="Oie51b7RRHgQ4mlDYI3o-128" value="1" style="text;html=1;align=center;verticalAlign=middle;whiteSpace=wrap;rounded=0;" vertex="1" parent="1">
          <mxGeometry x="1090" y="-100" width="60" height="30" as="geometry" />
        </mxCell>
        <mxCell id="Oie51b7RRHgQ4mlDYI3o-129" value="1" style="text;html=1;align=center;verticalAlign=middle;whiteSpace=wrap;rounded=0;" vertex="1" parent="1">
          <mxGeometry x="1010" y="-100" width="60" height="30" as="geometry" />
        </mxCell>
        <mxCell id="Oie51b7RRHgQ4mlDYI3o-130" value="" style="endArrow=none;html=1;rounded=0;exitX=0.5;exitY=0;exitDx=0;exitDy=0;entryX=0.002;entryY=0.009;entryDx=0;entryDy=0;entryPerimeter=0;" edge="1" parent="1" source="Oie51b7RRHgQ4mlDYI3o-73" target="Oie51b7RRHgQ4mlDYI3o-39">
          <mxGeometry width="50" height="50" relative="1" as="geometry">
            <mxPoint x="1130" y="-254" as="sourcePoint" />
            <mxPoint x="1180" y="-304" as="targetPoint" />
            <Array as="points">
              <mxPoint x="1570" y="-44" />
            </Array>
          </mxGeometry>
        </mxCell>
        <mxCell id="Oie51b7RRHgQ4mlDYI3o-131" value="" style="endArrow=none;html=1;rounded=0;entryX=0.5;entryY=0;entryDx=0;entryDy=0;exitX=0.963;exitY=0.001;exitDx=0;exitDy=0;exitPerimeter=0;" edge="1" parent="1" source="Oie51b7RRHgQ4mlDYI3o-39" target="Oie51b7RRHgQ4mlDYI3o-77">
          <mxGeometry width="50" height="50" relative="1" as="geometry">
            <mxPoint x="1580" y="-154" as="sourcePoint" />
            <mxPoint x="1630" y="-204" as="targetPoint" />
            <Array as="points">
              <mxPoint x="1790" y="-44" />
            </Array>
          </mxGeometry>
        </mxCell>
        <mxCell id="Oie51b7RRHgQ4mlDYI3o-132" value="CanAccess &amp;gt;" style="text;html=1;align=center;verticalAlign=middle;whiteSpace=wrap;rounded=0;" vertex="1" parent="1">
          <mxGeometry x="1500" y="16" width="60" height="30" as="geometry" />
        </mxCell>
        <mxCell id="Oie51b7RRHgQ4mlDYI3o-133" value="CanAccess &amp;lt;" style="text;html=1;align=center;verticalAlign=middle;whiteSpace=wrap;rounded=0;" vertex="1" parent="1">
          <mxGeometry x="1810" y="16" width="60" height="30" as="geometry" />
        </mxCell>
        <mxCell id="Oie51b7RRHgQ4mlDYI3o-135" value="" style="endArrow=none;html=1;rounded=0;entryX=0.057;entryY=-0.01;entryDx=0;entryDy=0;entryPerimeter=0;exitX=0.948;exitY=-0.005;exitDx=0;exitDy=0;exitPerimeter=0;" edge="1" parent="1" source="Oie51b7RRHgQ4mlDYI3o-74" target="Oie51b7RRHgQ4mlDYI3o-78">
          <mxGeometry width="50" height="50" relative="1" as="geometry">
            <mxPoint x="1570" y="180" as="sourcePoint" />
            <mxPoint x="1620" y="130" as="targetPoint" />
          </mxGeometry>
        </mxCell>
        <mxCell id="Oie51b7RRHgQ4mlDYI3o-137" value="" style="endArrow=none;html=1;rounded=0;exitX=0.5;exitY=0;exitDx=0;exitDy=0;entryX=0.498;entryY=0.998;entryDx=0;entryDy=0;entryPerimeter=0;" edge="1" parent="1" source="Oie51b7RRHgQ4mlDYI3o-30" target="Oie51b7RRHgQ4mlDYI3o-76">
          <mxGeometry width="50" height="50" relative="1" as="geometry">
            <mxPoint x="1650" y="260" as="sourcePoint" />
            <mxPoint x="1700" y="210" as="targetPoint" />
          </mxGeometry>
        </mxCell>
        <mxCell id="Oie51b7RRHgQ4mlDYI3o-141" value="canCreate &amp;gt;" style="text;html=1;align=center;verticalAlign=middle;whiteSpace=wrap;rounded=0;" vertex="1" parent="1">
          <mxGeometry x="1570" y="294" width="80" height="30" as="geometry" />
        </mxCell>
      </root>
    </mxGraphModel>
  </diagram>
</mxfile>
